<svg width="300" height="300" xmlns="http://www.w3.org/2000/svg">
 <!-- Created with Method Draw - http://github.com/duopixel/Method-Draw/ -->

 <g>
  <title>background</title>
  <rect fill="#fff" id="canvas_background" height="302" width="302" y="-1" x="-1"/>
  <g display="none" overflow="visible" y="0" x="0" height="100%" width="100%" id="canvasGrid">
   <rect fill="url(#gridpattern)" stroke-width="0" y="0" x="0" height="100%" width="100%"/>
  </g>
 </g>
 <g>
  <title>Layer 1</title>
  <g stroke="null" id="svg_27">
   <g stroke="null" transform="matrix(0.5792346342761031,0,0,0.5792346342761031,-2126.983278052156,-2126.9830809130362) " id="svg_5">
    <g stroke="null" id="svg_6">
     <g stroke="null" id="svg_7">
      <g stroke="null" id="svg_8">
       <path stroke="null" id="svg_9" fill="#f7e782" d="m4057.21858,3942.54016l-137.743,-137.743l65.704,-65.704c4.226,-4.226 11.078,-4.226 15.305,0l122.438,122.438c4.226,4.226 4.226,11.078 0,15.305l-65.704,65.704z"/>
       <path stroke="null" id="svg_10" fill="#ffd064" d="m4122.92258,3861.53216l-122.439,-122.438c-4.175,-4.175 -10.907,-4.218 -15.145,-0.145l107.584,107.583c4.226,4.227 4.226,11.079 0,15.305l-58.204,58.204l22.5,22.5l65.704,-65.704c4.226,-4.227 4.226,-11.079 0,-15.305z"/>
       <path stroke="null" id="svg_11" fill="#655e67" d="m3972.38358,3981.46116l-91.828,-91.829l38.92,-84.835l137.743,137.743l-84.835,38.921z"/>
       <path stroke="null" id="svg_12" fill="#544f56" d="m4034.65758,3919.97916l-84.835,38.921l22.561,22.56l84.835,-38.92l-22.561,-22.561z"/>
       <path stroke="null" id="svg_13" fill="#f7e782" d="m3692.85858,4123.24316l45.914,45.914c12.679,12.679 33.235,12.679 45.914,0l187.697,-187.697l-91.829,-91.829l-187.696,187.698c-12.679,12.679 -12.679,33.235 0,45.914z"/>
       <path stroke="null" id="svg_14" fill="#ffd064" d="m3949.42658,3958.50316l-169.879,169.879c-12.679,12.679 -33.235,12.679 -45.914,0l-45.33,-45.33c-7.869,12.538 -6.357,29.279 4.554,40.19l45.914,45.914c12.679,12.679 33.235,12.679 45.914,0l187.697,-187.697l-22.956,-22.956z"/>
       <g stroke="null" id="svg_15">
        <path stroke="null" id="svg_16" fill="#e5979d" d="m3844.09958,4040.87316l-22.957,-22.957c-2.113,-2.113 -2.113,-5.539 0,-7.652l15.305,-15.305c2.113,-2.113 5.539,-2.113 7.652,0l22.957,22.957c2.113,2.113 2.113,5.539 0,7.652l-15.305,15.305c-2.113,2.113 -5.539,2.113 -7.652,0z"/>
        <path stroke="null" id="svg_17" fill="#b3e59f" d="m3798.18558,4086.78716l-22.957,-22.957c-2.113,-2.113 -2.113,-5.539 0,-7.652l15.305,-15.305c2.113,-2.113 5.539,-2.113 7.652,0l22.957,22.957c2.113,2.113 2.113,5.539 0,7.652l-15.305,15.305c-2.113,2.114 -5.539,2.114 -7.652,0z"/>
       </g>
      </g>
      <g stroke="null" id="svg_18"/>
      <g stroke="null" id="svg_20"/>
      <g stroke="null" id="svg_22"/>
     </g>
     <path stroke="null" id="svg_24" fill="#655e67" d="m4124.98958,3884.81216l-147.786,-147.785c-2.734,-2.734 -2.734,-7.166 0,-9.899l11.314,-11.314c2.734,-2.734 7.166,-2.734 9.9,0l147.785,147.785c2.734,2.734 2.734,7.166 0,9.899l-11.314,11.314c-2.734,2.734 -7.166,2.734 -9.899,0z"/>
     <path stroke="null" id="svg_25" fill="#544f56" d="m4146.20258,3863.59916l-20.93,-20.93c2.733,2.733 2.733,7.165 -0.001,9.899l-11.314,11.313c-2.734,2.734 -7.166,2.734 -9.899,0l20.931,20.931c2.734,2.733 7.166,2.733 9.899,0l11.314,-11.313c2.733,-2.734 2.733,-7.167 0,-9.9z"/>
    </g>
   </g>
  </g>
 </g>
</svg>