<svg width="300" height="300" xmlns="http://www.w3.org/2000/svg">
 <!-- Created with Method Draw - http://github.com/duopixel/Method-Draw/ -->

 <g>
  <title>background</title>
  <rect fill="#fff" id="canvas_background" height="302" width="302" y="-1" x="-1"/>
  <g display="none" overflow="visible" y="0" x="0" height="100%" width="100%" id="canvasGrid">
   <rect fill="url(#gridpattern)" stroke-width="0" y="0" x="0" height="100%" width="100%"/>
  </g>
 </g>
 <g>
  <title>Layer 1</title>
  <g stroke="null" id="svg_27">
   <g stroke="null" transform="matrix(0.5792346342761031,0,0,0.5792346342761031,-2126.983278052156,-2126.9830809130362) " id="svg_5">
    <g stroke="null" id="svg_6">
     <g stroke="null" id="svg_7">
      <g stroke="null" id="svg_8">
       <path stroke="null" id="svg_9" fill="#f7e782" d="m4057.21858,3944.26658l-137.743,-137.743l65.704,-65.704c4.226,-4.226 11.078,-4.226 15.305,0l122.438,122.438c4.226,4.226 4.226,11.078 0,15.305l-65.704,65.704z"/>
       <path stroke="null" id="svg_10" fill="#ffd064" d="m4122.92258,3863.25858l-122.439,-122.438c-4.175,-4.175 -10.907,-4.218 -15.145,-0.145l107.584,107.583c4.226,4.227 4.226,11.079 0,15.305l-58.204,58.204l22.5,22.5l65.704,-65.704c4.226,-4.227 4.226,-11.079 0,-15.305z"/>
       <path stroke="null" id="svg_11" fill="#655e67" d="m3972.38358,3983.18758l-91.828,-91.829l38.92,-84.835l137.743,137.743l-84.835,38.921z"/>
       <path stroke="null" id="svg_12" fill="#544f56" d="m4034.65758,3921.70558l-84.835,38.921l22.561,22.56l84.835,-38.92l-22.561,-22.561z"/>
       <path stroke="null" id="svg_13" fill="#f7e782" d="m3692.85858,4124.96958l45.914,45.914c12.679,12.679 33.235,12.679 45.914,0l187.697,-187.697l-91.829,-91.829l-187.696,187.698c-12.679,12.679 -12.679,33.235 0,45.914z"/>
       <path stroke="null" id="svg_14" fill="#ffd064" d="m3949.42658,3960.22958l-169.879,169.879c-12.679,12.679 -33.235,12.679 -45.914,0l-45.33,-45.33c-7.869,12.538 -6.357,29.279 4.554,40.19l45.914,45.914c12.679,12.679 33.235,12.679 45.914,0l187.697,-187.697l-22.956,-22.956z"/>
       <g stroke="null" id="svg_15">
        <path stroke="null" id="svg_16" fill="#e5979d" d="m3844.09958,4042.59958l-22.957,-22.957c-2.113,-2.113 -2.113,-5.539 0,-7.652l15.305,-15.305c2.113,-2.113 5.539,-2.113 7.652,0l22.957,22.957c2.113,2.113 2.113,5.539 0,7.652l-15.305,15.305c-2.113,2.113 -5.539,2.113 -7.652,0z"/>
        <path stroke="null" id="svg_17" fill="#b3e59f" d="m3798.18558,4088.51358l-22.957,-22.957c-2.113,-2.113 -2.113,-5.539 0,-7.652l15.305,-15.305c2.113,-2.113 5.539,-2.113 7.652,0l22.957,22.957c2.113,2.113 2.113,5.539 0,7.652l-15.305,15.305c-2.113,2.114 -5.539,2.114 -7.652,0z"/>
       </g>
      </g>
      <g stroke="null" id="svg_18">
       <path stroke="null" id="svg_19" fill="#f7e782" d="m4096.13858,3775.10358c-1.919,0 -3.839,-0.732 -5.303,-2.196c-2.929,-2.93 -2.929,-7.678 0,-10.607l38.296,-38.297c2.929,-2.928 7.678,-2.928 10.606,0c2.929,2.93 2.929,7.678 0,10.607l-38.296,38.297c-1.464,1.464 -3.383,2.196 -5.303,2.196z"/>
      </g>
      <g stroke="null" id="svg_20">
       <path stroke="null" id="svg_21" fill="#f7e782" d="m4061.69658,3740.66858c-1.201,0 -2.419,-0.289 -3.551,-0.898c-3.646,-1.965 -5.01,-6.514 -3.045,-10.16l26.818,-49.774c1.965,-3.646 6.514,-5.008 10.16,-3.045c3.646,1.965 5.01,6.514 3.045,10.16l-26.818,49.774c-1.355,2.514 -3.94,3.943 -6.609,3.943z"/>
      </g>
      <g stroke="null" id="svg_22">
       <path stroke="null" id="svg_23" fill="#f7e782" d="m4130.58058,3809.54058c-2.67,0 -5.254,-1.429 -6.609,-3.943c-1.965,-3.646 -0.602,-8.195 3.045,-10.16l49.775,-26.818c3.646,-1.964 8.196,-0.601 10.16,3.045c1.965,3.646 0.602,8.195 -3.045,10.16l-49.775,26.818c-1.131,0.609 -2.35,0.898 -3.551,0.898z"/>
      </g>
     </g>
     <path stroke="null" id="svg_24" fill="#655e67" d="m4124.98958,3886.53858l-147.786,-147.785c-2.734,-2.734 -2.734,-7.166 0,-9.899l11.314,-11.314c2.734,-2.734 7.166,-2.734 9.9,0l147.785,147.785c2.734,2.734 2.734,7.166 0,9.899l-11.314,11.314c-2.734,2.734 -7.166,2.734 -9.899,0z"/>
     <path stroke="null" id="svg_25" fill="#544f56" d="m4146.20258,3865.32558l-20.93,-20.93c2.733,2.733 2.733,7.165 -0.001,9.899l-11.314,11.313c-2.734,2.734 -7.166,2.734 -9.899,0l20.931,20.931c2.734,2.733 7.166,2.733 9.899,0l11.314,-11.313c2.733,-2.734 2.733,-7.167 0,-9.9z"/>
    </g>
    <path stroke="null" id="svg_26" d="m4058.14558,3739.76958c3.58,1.929 8.175,0.642 10.16,-3.045l26.818,-49.774c1.965,-3.646 0.602,-8.195 -3.045,-10.16c-3.646,-1.963 -8.195,-0.601 -10.16,3.045l-26.818,49.774c-1.965,3.647 -0.602,8.196 3.045,10.16zm128.806,31.894c-1.964,-3.646 -6.514,-5.009 -10.16,-3.045l-49.775,26.818c-3.646,1.965 -5.01,6.514 -3.045,10.16c1.986,3.686 6.575,4.981 10.16,3.045l49.775,-26.818c3.647,-1.965 5.01,-6.514 3.045,-10.16zm-339.026,280.021c3.449,0 6.691,-1.343 9.129,-3.781l15.305,-15.305c5.034,-5.034 5.034,-13.226 0,-18.26l-22.957,-22.956c-2.438,-2.438 -5.681,-3.781 -9.129,-3.781c-3.449,0 -6.691,1.343 -9.129,3.781l-15.305,15.305c-2.439,2.438 -3.782,5.681 -3.782,9.13c0,3.448 1.343,6.69 3.781,9.13l22.958,22.957c2.438,2.438 5.681,3.78 9.129,3.78zm-7.652,-48.218l20.003,20.003l-12.351,12.351l-20.003,-20.003l12.351,-12.351zm250.562,-230.559c2.928,2.929 7.677,2.928 10.606,0l38.296,-38.297c2.929,-2.93 2.929,-7.678 0,-10.607c-2.929,-2.928 -7.678,-2.928 -10.606,0l-38.296,38.297c-2.929,2.929 -2.929,7.677 0,10.607zm-87.115,-60.67c-5.553,-5.608 -14.956,-5.606 -20.507,-0.001l-11.313,11.313c-5.51,5.442 -5.629,14.617 -0.264,20.217l-57.409,57.4c-0.342,0.341 -1.078,1.17 -1.57,2.23l-38.358,83.61l-186.744,186.745c-15.475,15.265 -15.563,41.108 0,56.521l45.914,45.915c15.583,15.582 40.938,15.582 56.521,0l94.09,-94.09c2.929,-2.93 2.929,-7.678 0,-10.607c-2.929,-2.928 -7.678,-2.928 -10.606,0l-94.09,94.09c-9.734,9.734 -25.573,9.736 -35.308,0l-45.914,-45.915c-9.681,-9.586 -9.649,-25.752 0,-35.307l182.394,-182.394l81.222,81.222l-63.404,63.404c-2.929,2.93 -2.929,7.678 0,10.607c2.929,2.928 7.678,2.928 10.606,0l67.757,-67.757l83.61,-38.358c0.717,-0.414 1.164,-0.528 2.232,-1.572l57.408,-57.398c5.685,5.381 14.651,5.285 20.206,-0.271l11.314,-11.314c5.608,-5.557 5.577,-14.984 0,-20.506l-147.787,-147.784zm-29.722,261.957l-84.451,-84.451l32.249,-70.292l122.495,122.494l-70.293,32.249zm155.94,-93.313l-100.661,-100.661c-2.929,-2.928 -7.678,-2.928 -10.606,0c-2.929,2.93 -2.929,7.678 0,10.607l90.693,90.693l-52.147,52.139l-127.133,-127.134l52.146,-52.138l11.744,11.744c2.929,2.928 7.678,2.928 10.606,0c2.929,-2.93 2.929,-7.678 0,-10.607l-21.721,-21.72l10.606,-10.607l147.079,147.079l-10.606,10.605zm-335.58,152.633c-3.449,0 -6.691,1.343 -9.129,3.781l-15.305,15.305c-5.034,5.034 -5.034,13.226 0,18.26l22.957,22.957c2.438,2.438 5.681,3.781 9.129,3.781c3.449,0 6.691,-1.343 9.129,-3.781l15.305,-15.305c5.034,-5.034 5.034,-13.226 0,-18.26l-22.957,-22.956c-2.437,-2.439 -5.679,-3.782 -9.129,-3.782zm7.653,48.219l-20.003,-20.003l12.351,-12.351l20.003,20.003l-12.351,12.351z"/>
   </g>
  </g>
 </g>
</svg>