<svg width="800" height="800" xmlns="http://www.w3.org/2000/svg">
 <!-- Created with Method Draw - http://github.com/duopixel/Method-Draw/ -->

 <g>
  <title>background</title>
  <rect fill="#fff" id="canvas_background" height="802" width="802" y="-1" x="-1"/>
 </g>
 <g>
  <title>Layer 1</title>
  <metadata transform="matrix(0.12846341126868666,0,0,0.12846341126868666,0,0) ">image/svg+xmlOpenclipartArchitetto -- sport stacco 012010-03-27T10:00:58Drawing by Francesco 'Architetto' Rollandin. From OCAL 0.18 release.https://openclipart.org/detail/34489/architetto----sport-stacco-01-by-anonymousAnonymousactivityblack and whitesportweightlifting</metadata>
  <g stroke="null" id="svg_33">
   <path stroke="null" d="m689.14603,498.53521c1.48696,2.39916 7.911,-2.72384 8.74859,2.49965c-8.13711,6.01045 -5.97528,22.34459 -21.24531,21.24531c-3.15017,-3.51119 -7.5121,-5.82415 -7.49819,-12.49749c-3.52472,1.62495 -10.73572,4.28772 -13.74674,2.49965c-2.37519,1.65007 6.39775,2.67398 3.7489,8.74782c-7.78615,5.64983 -22.34614,-0.04986 -26.24346,-6.24855c-6.16197,1.32462 -13.07264,1.91252 -18.74643,3.74929c-0.57476,5.82376 2.46177,8.02347 0,12.49711c-10.17294,4.77474 -16.19615,-3.21124 -17.49603,-11.24747c-3.49959,0.66289 -6.48627,1.83676 -9.99784,2.49965c4.31129,18.48321 -21.10771,21.60749 -19.99529,3.7489c-7.43596,-0.06223 -13.28484,3.48684 -12.49749,-6.24855c2.07448,-2.09921 7.34822,-0.99955 11.24786,-1.24963c2.33654,-5.58605 4.03647,-11.7975 9.99745,-13.74635c8.84832,0.73672 7.211,11.94631 19.99529,8.74782c3.26149,-30.07972 -2.64962,-75.63123 28.74312,-81.23197c-4.49914,-18.80789 10.76007,-27.26852 22.49533,-18.74566c0.62501,5.52343 2.84868,13.8971 -1.24963,19.99529c18.47007,11.94708 15.6581,45.16538 21.24531,69.98411c2.72422,-4.78633 3.59777,-11.40981 7.4978,-14.99637l9.99784,0c1.3567,3.63333 5.29538,4.70014 4.9939,9.99552l0.00502,0.00193zm-4.99776,19.99491c7.37295,-6.84767 6.75993,-28.30518 -7.4978,-27.49348c-3.30015,2.10037 -5.29925,5.52343 -4.99931,11.24747c3.5367,0.2122 8.57234,-1.07531 8.74782,2.49965c-0.22496,3.93598 -4.09986,4.22355 -8.74782,3.7489c-0.17548,4.76043 3.14863,6.01084 3.74929,9.99745c2.92212,-0.00387 5.83652,-0.00387 8.74705,-0.00387l0.00077,0.00387zm-6.2501,-13.74481c-1.63732,-1.27553 -9.64881,-1.35013 -9.99707,2.49927c4.06237,-0.11596 7.6957,-0.65323 9.99552,-2.50081l0.00155,0.00155zm-22.49186,4.99776c0.03672,-6.8353 3.33687,3.2499 8.74821,-1.24925c-5.82415,-20.3335 -1.9504,-63.88476 -21.24531,-69.98411c-1.66244,2.07486 0.46112,7.9481 -3.74929,7.49819c0.19906,-2.8742 -13.0854,-5.68577 -8.74782,-12.49711c2.92406,2.07486 3.02417,6.97367 8.74782,6.24855c4.27419,-4.69859 7.09813,-16.75893 3.74929,-24.99422c-10.71021,-5.33636 -20.59595,4.54939 -13.74674,13.74674c-6.74872,-2.67436 4.41063,6.79819 -2.50004,8.74782c-29.84355,-3.51157 -26.05677,48.01406 -28.7435,79.9835c1.8244,1.92451 6.39814,1.09928 9.99745,1.24925c2.9372,-6.72321 -3.38673,-6.04795 -3.7489,-12.49711c3.42383,-16.99702 2.04897,-38.78 13.74674,-47.48839c-0.74986,3.8235 -2.64962,6.51062 -3.74929,9.99745c7.89785,-2.06133 7.72276,3.93598 13.74713,3.7489c6.99764,-2.58585 12.10942,-7.06026 18.74566,-9.99745c19.55427,7.21641 5.99499,31.59837 8.74705,47.48066l0.00155,0.00657zm-8.75091,-3.74929c-0.67603,-11.80987 9.40994,-17.8582 8.74821,-27.49387c-1.2133,-17.88333 -15.5348,-8.92253 -29.99352,-3.7489c0.3873,4.54862 -0.18746,8.13673 -1.25002,11.24747c7.56003,-1.61219 13.97208,-4.36038 19.99607,-7.49819c-4.14934,7.51172 -4.83774,18.4836 -6.24855,28.7435c4.34067,1.0011 4.81609,-1.85918 8.75091,-1.24847l-0.00309,-0.00155zm3.74929,0c1.02352,-2.00026 4.74729,-7.62419 1.24963,-9.99784c1.17503,4.18992 -4.48368,7.8735 -1.24847,9.99939l-0.00116,-0.00155zm1.25234,2.50081c-15.48494,-0.48702 -25.19521,4.79831 -39.98982,4.99892c7.52177,2.38872 30.4272,-1.13638 39.98982,-4.99776l0,-0.00116zm3.74929,11.244c-0.27598,-8.06058 -10.54786,-6.12293 -18.74566,-6.24855c3.23521,5.10212 10.69513,5.97953 18.74643,6.2501l-0.00077,-0.00155zm-19.99877,-11.244c-1.60137,-9.12314 2.71224,-18.92037 1.24963,-23.74497c-2.69949,3.5367 -8.28631,4.19959 -14.99715,3.74929c1.13677,9.89734 -7.93573,16.18378 -6.24855,22.49495c4.65375,-2.86415 12.43836,-2.57812 19.99877,-2.50081l-0.00271,0.00155zm-23.7442,2.49695c0.82407,-7.42397 19.45764,-43.05496 3.7489,-39.98982c-6.1496,1.19823 -11.09712,33.95617 -3.74929,39.98982l0.00039,0zm0,17.49796l0,-7.49857c-4.69936,-0.96245 -5.97412,1.52445 -9.99745,1.25002l0,6.24855c5.22581,-0.28603 5.91382,2.02539 9.99939,0l-0.00193,0zm-33.74165,7.49857c9.04776,-2.71224 7.82287,-23.00709 1.25002,-27.49348c-7.24888,-1.01153 -9.74853,2.74973 -9.99784,8.74821c4.51113,-0.33821 8.6481,-0.31308 7.49819,4.99892c-1.14952,2.17497 -3.89926,2.76172 -7.49819,2.49927c-0.35019,7.01155 3.0864,10.24676 8.74782,11.24786l0,-0.00077zm-3.7489,-16.24949c-2.49927,-2.01263 -12.20953,-0.5995 -13.74674,2.49965c3.26149,2.02539 12.57209,1.47652 13.74674,-2.50081l0,0.00116z" id="svg_31"/>
   <path stroke="null" fill="#FFFFFF" d="m676.6497,491.03663c14.25811,-0.81209 14.87114,20.64582 7.4978,27.49348l-8.74782,0c-0.60105,-3.98661 -3.92477,-5.23702 -3.74929,-9.99745c4.64757,0.47465 8.52286,0.18669 8.74782,-3.7489c-0.17548,-3.57496 -5.21074,-2.28745 -8.74782,-2.49965c-0.30149,-5.72056 1.69684,-9.1413 4.99776,-11.244l0.00155,-0.00348z" id="svg_30"/>
   <path stroke="null" fill="#FFFFFF" d="m667.90265,507.28225c0.34826,-3.8494 8.35975,-3.7748 9.99707,-2.49927c-2.29982,1.85145 -5.93315,2.38872 -9.99552,2.50081l-0.00155,-0.00155z" id="svg_29"/>
   <path stroke="null" fill="#FFFFFF" d="m664.15336,508.53459c-5.41134,4.49953 -8.71149,-5.58566 -8.74821,1.24925c-2.75089,-15.88345 10.80954,-40.26425 -8.74821,-47.48839c-6.63624,2.93759 -11.74802,7.41161 -18.74566,9.99745c-6.02437,0.18669 -5.84927,-5.81024 -13.74713,-3.7489c1.09966,-3.48684 2.99904,-6.17434 3.74929,-9.99745c-11.69778,8.70994 -10.32329,30.49214 -13.74674,47.48839c0.36256,6.44916 6.6861,5.7739 3.7489,12.49711c-3.5997,-0.15036 -8.17306,0.67487 -9.99745,-1.24925c2.68673,-31.96789 -1.10005,-83.49314 28.7435,-79.9835c6.91067,-1.94963 -4.24868,-11.42257 2.50004,-8.74782c-6.84883,-9.19774 3.03654,-19.0831 13.74674,-13.74674c3.34885,8.23529 0.52451,20.29562 -3.74929,24.99422c-5.72365,0.72473 -5.82338,-4.17369 -8.74782,-6.24855c-4.33758,6.81133 8.94649,9.62291 8.74782,12.49711c4.2108,0.44991 2.08685,-5.42332 3.74929,-7.49819c19.28757,6.09936 15.41459,49.65293 21.23952,69.98798l0.00541,-0.00271z" id="svg_28"/>
   <path stroke="null" fill="#FFFFFF" d="m655.40632,478.5403c0.66173,9.63567 -9.42424,15.684 -8.74821,27.49387c-3.93714,-0.6111 -4.41256,2.24957 -8.74782,1.24963c1.41081,-10.2599 2.09921,-21.23217 6.24855,-28.7435c-6.02398,3.13781 -12.43642,5.88638 -19.99607,7.49819c1.06256,-3.11075 1.63732,-6.69885 1.25002,-11.24747c14.45215,-5.17556 28.77674,-14.1352 29.99043,3.74929l0.00309,0z" id="svg_27"/>
   <path stroke="null" fill="#FFFFFF" d="m651.65703,496.03439c3.49766,2.37403 -0.22612,7.99758 -1.24963,9.99784c-3.23907,-2.12588 2.41964,-5.80946 1.24847,-9.99939l0.00116,0.00155z" id="svg_26"/>
   <path stroke="null" fill="#FFFFFF" d="m611.66335,513.53235c14.79654,-0.20061 24.50681,-5.48555 39.98982,-4.99892c-9.55875,3.86138 -32.46419,7.38648 -39.98982,4.99776l0,0.00116z" id="svg_25"/>
   <path stroke="null" fill="#FFFFFF" d="m636.65988,513.53235c8.1978,0.12562 18.46968,-1.81203 18.74566,6.24855c-8.0513,-0.27443 -15.51123,-1.15184 -18.74643,-6.2501l0.00077,0.00155z" id="svg_24"/>
   <path stroke="null" fill="#FFFFFF" d="m636.65988,484.7904c1.46222,4.82421 -2.851,14.62183 -1.24963,23.74497c-7.56158,-0.0746 -15.34734,-0.36256 -19.99607,2.49965c-1.68718,-6.31117 7.38532,-12.5976 6.24855,-22.49495c6.7062,0.44837 12.29148,-0.21259 14.99328,-3.74929l0.00387,-0.00039z" id="svg_23"/>
   <path stroke="null" fill="#FFFFFF" d="m615.41264,471.04172c15.70874,-3.06243 -2.92483,32.567 -3.7489,39.98982c-7.34783,-6.03365 -2.40032,-38.79159 3.74929,-39.98982l-0.00039,0z" id="svg_21"/>
   <path stroke="null" fill="#FFFFFF" d="m611.66335,521.03093l0,7.49857c-4.08672,2.02423 -4.77435,-0.2868 -9.99745,0l0,-6.24855c4.02758,0.27443 5.29925,-2.21092 9.99939,-1.24847l-0.00193,-0.00155z" id="svg_20"/>
   <path stroke="null" fill="#FFFFFF" d="m579.17172,508.53459c6.57285,4.486 7.79774,24.78124 -1.25002,27.49348c-5.66142,-0.99917 -9.09801,-4.23592 -8.74782,-11.24747c3.59893,0.26245 6.34866,-0.32429 7.49819,-2.49927c1.14991,-5.31162 -2.98706,-5.33713 -7.49819,-4.99892c0.24931,-5.99886 2.74896,-9.75974 9.99784,-8.74705l0,-0.00077z" id="svg_19"/>
   <path stroke="null" fill="#FFFFFF" d="m560.42606,522.2794c1.53721,-3.09915 11.24747,-4.51229 13.74674,-2.49965c-1.17465,3.97734 -10.48525,4.5262 -13.74674,2.50081l0,-0.00116z" id="svg_18"/>
  </g>
  <metadata transform="matrix(0.1948843121240884,0,0,0.1948843121240884,0,0) ">image/svg+xmlOpenclipartArchitetto -- sport stacco 022010-03-27T10:03:46Drawing by Francesco 'Architetto' Rollandin. From OCAL 0.18 release.https://openclipart.org/detail/34495/architetto----sport-stacco-02-by-anonymousAnonymousactivityblackblack and whitesportweightifting</metadata>
  <g stroke="null" id="svg_64">
   <path stroke="null" d="m223.02889,416.31984c0,-1.68389 6.57385,-1.66289 6.39324,0.06342c0.34148,1.43902 1.5247,2.03545 1.06519,4.26202c-1.10803,2.43994 -7.6067,-0.51117 -8.52362,2.1308c2.44036,2.88727 1.91869,8.737 8.52362,7.45843c16.42729,-11.42476 -8.61057,-36.47521 -7.45969,-13.91552l0.00126,0.00084zm22.37488,0.063c0.3629,4.26202 -3.03638,4.76269 -7.45843,4.26202c1.26848,14.07471 -18.48626,15.01221 -18.11328,1.06519c-5.6792,1.30965 -8.46986,4.59174 -13.85126,1.06561c5.31671,16.57808 -3.53705,38.29393 0,54.33899c1.36341,6.13661 8.40728,8.25775 7.45801,14.91645c-6.34998,5.00883 -14.98029,-0.63844 -20.24408,-3.19557c-0.11635,-16.91998 2.49412,-43.71649 -6.39282,-57.5354c-6.04126,21.65117 -10.49439,44.90937 -11.72003,71.38792c-5.72204,2.27991 -8.54505,-1.2143 -11.72045,-4.2616c-0.63886,-25.23065 5.86023,-46.96751 2.1308,-69.25838c-2.76966,-2.20515 -7.68231,-2.25891 -12.78565,-2.1308c1.25798,14.22466 -18.34723,19.31708 -19.17763,3.19641c-5.62711,-1.43902 -12.30723,4.02765 -14.91687,-1.06561c-0.68255,-6.72254 6.95692,-5.12434 12.78565,-5.32763c3.49379,-2.54621 4.07973,-8.00153 7.45717,-10.65484c8.96087,-1.8645 10.04832,4.16584 12.78607,8.52362l6.39282,0c4.18852,-22.09766 4.09233,-48.47961 14.91729,-63.92823c5.21086,-0.84174 10.44231,-1.64063 12.78523,-5.32721c-6.55201,-10.98499 2.26899,-29.50317 15.9829,-20.24408c2.28033,6.55243 3.67566,17.39923 -1.06603,22.3753c16.2912,10.3457 7.57646,45.69902 18.11328,61.79869c2.96246,-7.5542 4.87988,-12.78565 11.72003,-11.72045c6.84225,1.05427 5.65777,11.79438 14.91939,11.71877l-0.0021,0.00084zm-26.63816,1.06687c-0.53302,3.82477 9.91014,2.79192 9.58923,0l-9.58923,0zm-3.19641,3.19641c-3.57906,-13.81933 -6.00934,-34.46874 -8.52404,-45.81663c-6.59486,19.56237 4.17592,32.30602 1.06561,46.8835c3.46103,0.61324 4.96053,-0.72665 7.45549,-1.06687l0.00294,0zm-5.32595,70.32105c0.58678,-5.08234 -4.94415,-5.86065 -6.39282,-11.72045c-3.92096,-15.89679 7.07495,-43.25866 -2.1308,-56.46853c-3.6975,1.98211 -10.53766,0.82073 -14.91729,2.1308c8.737,14.40569 11.45374,41.09594 7.45843,61.79869c4.23388,2.51177 9.26161,4.22548 15.97786,4.25908l0.00462,0.00042zm-4.26328,-120.40096c1.07653,-0.01008 1.26848,0.86316 2.1308,1.06561c-0.25496,-13.11621 -14.14948,-11.75196 -15.98248,-19.17847c1.26848,1.22522 3.77143,1.2038 6.39282,1.06561c4.43297,-5.33771 3.55974,-15.61999 0,-21.30969c-15.73634,-3.27118 -8.43878,12.93476 -12.78565,13.85126c0.3209,3.70801 2.88727,-0.09577 3.19641,2.13122c-0.93708,2.96204 -1.32099,6.47809 -3.19641,8.52362c-24.06927,4.57074 -21.04339,41.35131 -23.06709,65.47393c-0.40449,0.98034 -0.46917,3.10107 -0.37382,3.78235c0.13861,-1.2143 0.26672,-2.48278 0.37382,-3.78235c0.17053,-0.41625 0.39441,-0.62836 0.69179,-0.47967c0.72539,0.36206 1.05511,0.82073 1.14038,1.26848c-2.24841,3.06872 0.31964,1.5877 0,0c0.21379,-0.29864 0.48009,-0.6502 0.80981,-1.04419c-1.25672,1.66247 3.17583,-1.8855 4.44263,-0.22387c-0.04284,1.12903 0.51243,2.70624 1.06561,1.06561c-3.3556,-11.69861 -0.94758,-40.06225 8.52404,-49.01304c-2.66382,14.36243 -9.16291,27.79828 -6.39282,45.81663c10.23944,-0.07392 18.07043,-2.53571 28.76812,-2.13122c-7.81252,-15.48222 4.33469,-29.56996 4.25908,-46.8835l0.00294,0.00168zm-1.06687,46.8835c4.1881,-5.86023 -0.25496,-13.3069 -3.19599,-18.11328c-1.03327,7.04807 -0.29822,13.14267 3.19641,18.1116l-0.00042,0.00168zm-31.96411,6.39282c9.30194,-3.13299 25.13572,0.26672 33.03014,-4.2616c-10.66451,1.75572 -24.83624,0.021 -33.03098,4.26328l0.00084,-0.00168zm-1.06267,76.71387c2.25891,-21.39537 6.0736,-52.44467 12.78565,-75.647c-4.27252,1.04335 -9.34394,1.29957 -14.91729,1.06519c-1.49068,16.84479 -1.18154,40.10425 -2.1308,57.5354c-0.28982,5.41836 -6.53143,16.54489 4.26328,17.04473l-0.00084,0.00168zm-27.70503,-61.79869c13.56396,-6.55201 -1.4701,-36.31182 -8.52404,-15.98206c3.01538,0.18103 7.30932,-0.91692 7.45843,2.1308l0,4.2616c-1.36299,1.4701 -4.62367,1.05511 -7.45843,1.06561c1.51336,4.16668 2.04596,9.32042 8.52404,8.52236l0,0.00168zm-2.1308,-12.78565c-4.36787,-2.15264 -11.20844,1.24664 -18.11202,0c2.72682,4.80512 13.66896,0.45783 18.11202,0z" id="svg_62"/>
   <path stroke="null" fill="#FFFFFF" d="m223.02889,416.31984c-1.15046,-22.55675 23.88824,2.49286 7.45843,13.91468c-6.60494,1.27856 -6.08326,-4.57116 -8.52362,-7.45843c0.91692,-2.64197 7.41559,0.30872 8.52362,-2.1308c0.45951,-2.22699 -0.72413,-2.82343 -1.06519,-4.26202c0.18061,-1.72631 -6.39282,-1.74732 -6.39282,-0.063l-0.00042,-0.00042z" id="svg_61"/>
   <path stroke="null" fill="#FFFFFF" d="m228.35484,417.44972c0.3209,2.79192 -10.12225,3.82477 -9.58923,0l9.58923,0z" id="svg_60"/>
   <path stroke="null" fill="#FFFFFF" d="m207.04683,374.8295c2.51471,11.34747 4.94457,31.99688 8.52404,45.81663c-2.49328,0.34106 -3.99572,1.68347 -7.45843,1.06519c3.11241,-14.57916 -7.66131,-27.32281 -1.06267,-46.8835l-0.00294,0.00168z" id="svg_59"/>
   <path stroke="null" fill="#FFFFFF" d="m203.85042,479.2442c1.44868,5.85981 6.9796,6.63854 6.39282,11.72045c-6.71246,-0.03234 -11.74104,-1.7469 -15.98248,-4.2616c3.9953,-20.70233 1.27856,-47.39173 -7.45843,-61.79869c4.37963,-1.31007 11.21978,-0.14869 14.91729,-2.1308c9.20701,13.21407 -1.78932,40.57888 2.13374,56.47273l-0.00294,-0.0021z" id="svg_58"/>
   <path stroke="null" fill="#FFFFFF" d="m165.30867,421.93561c-0.32972,0.39399 -0.59602,0.74555 -0.80981,1.04419c-0.08527,-0.44733 -0.41499,-0.906 -1.14038,-1.26848c-0.29738,-0.14869 -0.52125,0.063 -0.69179,0.47967c2.02369,-24.12262 -1.00219,-60.90403 23.06709,-65.47393c1.87584,-2.04554 2.25933,-5.56159 3.19641,-8.52362c-0.30914,-2.22657 -2.87593,1.57678 -3.19641,-2.13122c4.34729,-0.91608 -2.95028,-17.12201 12.78565,-13.85126c3.55974,5.68928 4.43297,15.97156 0,21.30969c-2.62097,0.13861 -5.12434,0.15961 -6.39282,-1.06561c1.833,7.42651 15.7271,6.06268 15.98248,19.17847c-0.86274,-0.20203 -1.05427,-1.07569 -2.1308,-1.06561c0.07476,17.31396 -12.07244,31.40002 -4.2616,46.8835c-10.69769,-0.40449 -18.52869,2.0573 -28.76812,2.13122c-2.7705,-18.01751 3.72901,-31.45336 6.39282,-45.81663c-9.47163,8.94995 -11.87965,37.31359 -8.52404,49.01304c-0.55318,1.64063 -1.10845,0.063 -1.06561,-1.06561c-1.26848,-1.66331 -5.69978,1.88172 -4.44389,0.22261l0.00084,-0.00042z" id="svg_57"/>
   <path stroke="null" fill="#FFFFFF" d="m201.71668,399.33392c2.94103,4.80596 7.38409,12.25263 3.19599,18.11328c-3.49463,-4.96473 -4.22968,-11.05933 -3.19641,-18.1116l0.00042,-0.00168z" id="svg_56"/>
   <path stroke="null" fill="#FFFFFF" d="m205.97996,419.57926c-7.89442,4.52832 -23.72821,1.12903 -33.03014,4.2616c8.19474,-4.24228 22.36648,-2.50757 33.03098,-4.26328l-0.00084,0.00168z" id="svg_55"/>
   <path stroke="null" fill="#FFFFFF" d="m184.67195,424.90521c-6.71204,23.20653 -10.52716,54.25499 -12.78565,75.647c-10.79345,-0.50025 -4.5489,-11.62511 -4.26202,-17.04809c0.94926,-17.43157 0.64012,-40.69103 2.1308,-57.5354c5.57377,0.23942 10.6435,-0.0168 14.91939,-1.06267l-0.00252,-0.00084z" id="svg_54"/>
   <path stroke="null" fill="#FFFFFF" d="m164.50222,422.97728c0.31922,1.5877 -2.25135,3.0704 0,0z" id="svg_53"/>
   <path stroke="null" fill="#FFFFFF" d="m162.6667,422.18763c-0.10711,1.29957 -0.23522,2.56805 -0.37382,3.78235c-0.09241,-0.67624 -0.0294,-2.79738 0.37382,-3.78025l0,-0.0021z" id="svg_52"/>
   <path stroke="null" fill="#FFFFFF" d="m135.65765,422.77567c7.05353,-20.32976 22.088,9.43004 8.52404,15.98206c-6.47809,0.79931 -7.0111,-4.35737 -8.52404,-8.52362c2.83477,-0.0105 6.09544,0.40449 7.45843,-1.06561l0,-4.2616c-0.14911,-3.0452 -4.44347,-1.94893 -7.45843,-2.12954l0,-0.00168z" id="svg_51"/>
   <path stroke="null" fill="#FFFFFF" d="m123.93846,425.97208c6.904,1.24664 13.74415,-2.15264 18.11202,0c-4.44305,0.45783 -15.3852,4.80512 -18.11202,0z" id="svg_50"/>
  </g>
  <g stroke="null" id="svg_78">
   <path stroke="null" d="m443.02901,406.31984c0,-1.6839 6.57386,-1.66289 6.39325,0.06342c0.34148,1.43902 1.5247,2.03545 1.06519,4.26202c-1.10804,2.43994 -7.60671,-0.51117 -8.52363,2.1308c2.44036,2.88727 1.91869,8.737 8.52363,7.45844c16.42728,-11.42476 -8.61057,-36.47522 -7.4597,-13.91552l0.00126,0.00084zm22.37488,0.063c0.36291,4.26202 -3.03638,4.76269 -7.45843,4.26202c1.26848,14.07471 -18.48626,15.01221 -18.11328,1.06519c-5.67919,1.30965 -8.46986,4.59175 -13.85125,1.06561c5.31671,16.57808 -3.53706,38.29393 0,54.339c1.36341,6.1366 8.40727,8.25774 7.45801,14.91644c-6.34998,5.00883 -14.98029,-0.63844 -20.24408,-3.19557c-0.11635,-16.91998 2.49413,-43.71649 -6.39282,-57.5354c-6.04126,21.65117 -10.4944,44.90937 -11.72004,71.38792c-5.72204,2.27991 -8.54504,-1.2143 -11.72045,-4.26161c-0.63886,-25.23064 5.86023,-46.9675 2.1308,-69.25837c-2.76966,-2.20515 -7.68231,-2.25891 -12.78565,-2.13081c1.25799,14.22466 -18.34723,19.31708 -19.17762,3.19642c-5.62712,-1.43902 -12.30724,4.02764 -14.91687,-1.06561c-0.68255,-6.72255 6.95692,-5.12434 12.78564,-5.32764c3.4938,-2.54621 4.07973,-8.00153 7.45718,-10.65484c8.96087,-1.8645 10.04832,4.16583 12.78606,8.52362l6.39283,0c4.18851,-22.09766 4.09233,-48.4796 14.91728,-63.92823c5.21087,-0.84173 10.44231,-1.64062 12.78523,-5.32721c-6.55202,-10.98498 2.26899,-29.50317 15.98289,-20.24408c2.28034,6.55244 3.67567,17.39923 -1.06603,22.3753c16.2912,10.34571 7.57646,45.69903 18.11328,61.79869c2.96246,-7.5542 4.87988,-12.78565 11.72004,-11.72046c6.84225,1.05427 5.65777,11.79438 14.91938,11.71878l-0.0021,0.00084zm-26.63816,1.06687c-0.53301,3.82477 9.91014,2.79193 9.58924,0l-9.58924,0zm-3.19641,3.19641c-3.57906,-13.81933 -6.00934,-34.46874 -8.52404,-45.81663c-6.59486,19.56238 4.17591,32.30602 1.06561,46.8835c3.46103,0.61324 4.96052,-0.72665 7.45549,-1.06687l0.00294,0zm-5.32595,70.32105c0.58678,-5.08233 -4.94415,-5.86065 -6.39282,-11.72045c-3.92096,-15.89679 7.07494,-43.25866 -2.13081,-56.46854c-3.6975,1.98211 -10.53765,0.82074 -14.91728,2.1308c8.737,14.4057 11.45374,41.09594 7.45843,61.79869c4.23388,2.51177 9.26161,4.22548 15.97786,4.25908l0.00462,0.00042zm-4.26328,-120.40096c1.07653,-0.01008 1.26848,0.86316 2.1308,1.06561c-0.25496,-13.11621 -14.14948,-11.75196 -15.98248,-19.17847c1.26848,1.22522 3.77143,1.2038 6.39282,1.06561c4.43298,-5.33771 3.55974,-15.61999 0,-21.30969c-15.73634,-3.27117 -8.43878,12.93476 -12.78564,13.85126c0.3209,3.70801 2.88727,-0.09577 3.19641,2.13122c-0.93708,2.96204 -1.32099,6.47809 -3.19641,8.52362c-24.06927,4.57075 -21.04339,41.35132 -23.06709,65.47393c-0.40448,0.98035 -0.46917,3.10107 -0.37382,3.78235c0.13861,-1.2143 0.26672,-2.48278 0.37382,-3.78235c0.17053,-0.41624 0.39441,-0.62836 0.69179,-0.47967c0.72539,0.36207 1.05511,0.82074 1.14037,1.26849c-2.24841,3.06872 0.31964,1.5877 0,0c0.2138,-0.29864 0.4801,-0.65021 0.80982,-1.04419c-1.25673,1.66247 3.17583,-1.88551 4.44263,-0.22388c-0.04284,1.12904 0.51243,2.70624 1.06561,1.06561c-3.3556,-11.69861 -0.94758,-40.06225 8.52404,-49.01304c-2.66381,14.36243 -9.1629,27.79828 -6.39282,45.81663c10.23944,-0.07392 18.07044,-2.53571 28.76812,-2.13122c-7.81251,-15.48222 4.33469,-29.56995 4.25909,-46.8835l0.00294,0.00168zm-1.06687,46.8835c4.18809,-5.86023 -0.25496,-13.3069 -3.196,-18.11328c-1.03326,7.04807 -0.29822,13.14267 3.19642,18.1116l-0.00042,0.00168zm-31.96412,6.39282c9.30194,-3.13298 25.13572,0.26672 33.03015,-4.2616c-10.66451,1.75572 -24.83625,0.021 -33.03099,4.26328l0.00084,-0.00168zm-1.06267,76.71388c2.25891,-21.39538 6.0736,-52.44467 12.78565,-75.64701c-4.27253,1.04335 -9.34394,1.29957 -14.91729,1.06519c-1.49068,16.8448 -1.18154,40.10426 -2.1308,57.53541c-0.28982,5.41836 -6.53143,16.54489 4.26328,17.04473l-0.00084,0.00168zm-27.70503,-61.79869c13.56396,-6.55201 -1.4701,-36.31182 -8.52404,-15.98206c3.01538,0.18103 7.30932,-0.91692 7.45843,2.1308l0,4.26161c-1.36299,1.47009 -4.62367,1.05511 -7.45843,1.06561c1.51336,4.16667 2.04595,9.32041 8.52404,8.52236l0,0.00168zm-2.1308,-12.78565c-4.36787,-2.15264 -11.20844,1.24665 -18.11202,0c2.72682,4.80512 13.66897,0.45783 18.11202,0z" id="svg_65"/>
   <path stroke="null" fill="#FFFFFF" d="m443.02901,406.31984c-1.15045,-22.55676 23.88824,2.49286 7.45844,13.91468c-6.60494,1.27856 -6.08327,-4.57117 -8.52363,-7.45844c0.91692,-2.64197 7.41559,0.30872 8.52363,-2.1308c0.45951,-2.22699 -0.72413,-2.82342 -1.06519,-4.26202c0.18061,-1.72631 -6.39283,-1.74732 -6.39283,-0.063l-0.00042,-0.00042z" id="svg_66"/>
   <path stroke="null" fill="#FFFFFF" d="m448.35497,407.44971c0.3209,2.79193 -10.12225,3.82477 -9.58924,0l9.58924,0z" id="svg_67"/>
   <path stroke="null" fill="#FFFFFF" d="m427.04696,364.82949c2.5147,11.34747 4.94456,31.99688 8.52404,45.81663c-2.49328,0.34106 -3.99572,1.68347 -7.45843,1.06519c3.1124,-14.57916 -7.66131,-27.3228 -1.06267,-46.8835l-0.00294,0.00168z" id="svg_68"/>
   <path stroke="null" fill="#FFFFFF" d="m423.85055,469.2442c1.44867,5.8598 6.9796,6.63854 6.39282,11.72045c-6.71247,-0.03234 -11.74104,-1.74689 -15.98248,-4.2616c3.99531,-20.70233 1.27857,-47.39173 -7.45843,-61.79869c4.37963,-1.31006 11.21978,-0.14869 14.91728,-2.1308c9.20701,13.21408 -1.78931,40.57889 2.13375,56.47274l-0.00294,-0.0021z" id="svg_69"/>
   <path stroke="null" fill="#FFFFFF" d="m385.3088,411.93561c-0.32973,0.39398 -0.59602,0.74555 -0.80982,1.04419c-0.08526,-0.44733 -0.41498,-0.906 -1.14037,-1.26849c-0.29738,-0.14869 -0.52126,0.06301 -0.69179,0.47967c2.0237,-24.12261 -1.00218,-60.90402 23.06709,-65.47393c1.87584,-2.04553 2.25933,-5.56158 3.19641,-8.52362c-0.30914,-2.22657 -2.87593,1.57679 -3.19641,-2.13122c4.34728,-0.91608 -2.95028,-17.12201 12.78564,-13.85126c3.55974,5.68928 4.43298,15.97156 0,21.30969c-2.62097,0.13861 -5.12434,0.15961 -6.39282,-1.06561c1.833,7.42651 15.7271,6.06268 15.98248,19.17847c-0.86274,-0.20203 -1.05427,-1.07569 -2.1308,-1.06561c0.07476,17.31397 -12.07244,31.40002 -4.26161,46.8835c-10.69768,-0.40449 -18.52868,2.0573 -28.76812,2.13122c-2.7705,-18.01751 3.72901,-31.45336 6.39282,-45.81663c-9.47162,8.94995 -11.87964,37.31359 -8.52404,49.01304c-0.55318,1.64063 -1.10845,0.06301 -1.06561,-1.06561c-1.26848,-1.66331 -5.69978,1.88173 -4.44389,0.22262l0.00084,-0.00042z" id="svg_70"/>
   <path stroke="null" fill="#FFFFFF" d="m421.7168,389.33391c2.94104,4.80596 7.38409,12.25263 3.196,18.11328c-3.49464,-4.96473 -4.22968,-11.05933 -3.19642,-18.1116l0.00042,-0.00168z" id="svg_71"/>
   <path stroke="null" fill="#FFFFFF" d="m425.98009,409.57925c-7.89443,4.52832 -23.72821,1.12904 -33.03015,4.2616c8.19474,-4.24228 22.36648,-2.50756 33.03099,-4.26328l-0.00084,0.00168z" id="svg_72"/>
   <path stroke="null" fill="#FFFFFF" d="m404.67208,414.9052c-6.71205,23.20654 -10.52716,54.25499 -12.78565,75.64701c-10.79345,-0.50026 -4.5489,-11.62511 -4.26202,-17.04809c0.94926,-17.43157 0.64012,-40.69103 2.1308,-57.53541c5.57377,0.23942 10.6435,-0.0168 14.91939,-1.06267l-0.00252,-0.00084z" id="svg_73"/>
   <path stroke="null" fill="#FFFFFF" d="m384.50234,412.97728c0.31922,1.5877 -2.25135,3.0704 0,0z" id="svg_74"/>
   <path stroke="null" fill="#FFFFFF" d="m382.66682,412.18762c-0.10711,1.29957 -0.23521,2.56805 -0.37382,3.78235c-0.09241,-0.67624 -0.0294,-2.79738 0.37382,-3.78025l0,-0.0021z" id="svg_75"/>
   <path stroke="null" fill="#FFFFFF" d="m355.65778,412.77566c7.05352,-20.32976 22.088,9.43005 8.52404,15.98206c-6.47809,0.79931 -7.0111,-4.35737 -8.52404,-8.52362c2.83476,-0.0105 6.09544,0.40448 7.45843,-1.06561l0,-4.26161c-0.14911,-3.0452 -4.44347,-1.94893 -7.45843,-2.12954l0,-0.00168z" id="svg_76"/>
   <path stroke="null" fill="#FFFFFF" d="m343.93858,415.97207c6.904,1.24665 13.74415,-2.15264 18.11202,0c-4.44305,0.45783 -15.3852,4.80512 -18.11202,0z" id="svg_77"/>
  </g>
  <g stroke="null" id="svg_92">
   <path stroke="null" d="m201.02888,652.31998c0,-1.6839 6.57386,-1.66289 6.39325,0.06342c0.34148,1.43902 1.5247,2.03545 1.06519,4.26202c-1.10804,2.43994 -7.60671,-0.51117 -8.52363,2.1308c2.44036,2.88727 1.91869,8.737 8.52363,7.45844c16.42728,-11.42476 -8.61057,-36.47522 -7.4597,-13.91552l0.00126,0.00084zm22.37488,0.063c0.36291,4.26202 -3.03638,4.76269 -7.45843,4.26202c1.26848,14.07471 -18.48626,15.01221 -18.11328,1.06519c-5.67919,1.30965 -8.46986,4.59175 -13.85125,1.06561c5.31671,16.57808 -3.53706,38.29393 0,54.339c1.36341,6.1366 8.40727,8.25774 7.45801,14.91644c-6.34998,5.00883 -14.98029,-0.63844 -20.24408,-3.19557c-0.11635,-16.91998 2.49413,-43.71649 -6.39282,-57.5354c-6.04126,21.65117 -10.4944,44.90937 -11.72004,71.38792c-5.72204,2.27991 -8.54504,-1.2143 -11.72045,-4.26161c-0.63886,-25.23064 5.86023,-46.9675 2.1308,-69.25837c-2.76966,-2.20515 -7.68231,-2.25891 -12.78565,-2.13081c1.25799,14.22466 -18.34723,19.31708 -19.17762,3.19642c-5.62712,-1.43902 -12.30724,4.02764 -14.91687,-1.06561c-0.68255,-6.72255 6.95692,-5.12434 12.78564,-5.32764c3.4938,-2.54621 4.07973,-8.00153 7.45718,-10.65484c8.96087,-1.8645 10.04832,4.16583 12.78606,8.52362l6.39283,0c4.18851,-22.09766 4.09233,-48.4796 14.91728,-63.92823c5.21087,-0.84173 10.44231,-1.64062 12.78523,-5.32721c-6.55202,-10.98498 2.26899,-29.50317 15.98289,-20.24408c2.28034,6.55244 3.67567,17.39923 -1.06603,22.3753c16.2912,10.34571 7.57646,45.69903 18.11328,61.79869c2.96246,-7.5542 4.87988,-12.78565 11.72004,-11.72046c6.84225,1.05427 5.65777,11.79438 14.91938,11.71878l-0.0021,0.00084zm-26.63816,1.06687c-0.53301,3.82477 9.91014,2.79193 9.58924,0l-9.58924,0zm-3.19641,3.19641c-3.57906,-13.81933 -6.00934,-34.46874 -8.52404,-45.81663c-6.59486,19.56238 4.17591,32.30602 1.06561,46.8835c3.46103,0.61324 4.96052,-0.72665 7.45549,-1.06687l0.00294,0zm-5.32595,70.32105c0.58678,-5.08233 -4.94415,-5.86065 -6.39282,-11.72045c-3.92096,-15.89679 7.07494,-43.25866 -2.13081,-56.46854c-3.6975,1.98211 -10.53765,0.82074 -14.91728,2.1308c8.737,14.4057 11.45374,41.09594 7.45843,61.79869c4.23388,2.51177 9.26161,4.22548 15.97786,4.25908l0.00462,0.00042zm-4.26328,-120.40096c1.07653,-0.01008 1.26848,0.86316 2.1308,1.06561c-0.25496,-13.11621 -14.14948,-11.75196 -15.98248,-19.17847c1.26848,1.22522 3.77143,1.2038 6.39282,1.06561c4.43298,-5.33771 3.55974,-15.61999 0,-21.30969c-15.73634,-3.27117 -8.43878,12.93476 -12.78564,13.85126c0.3209,3.70801 2.88727,-0.09577 3.19641,2.13122c-0.93708,2.96204 -1.32099,6.47809 -3.19641,8.52362c-24.06927,4.57075 -21.04339,41.35132 -23.06709,65.47393c-0.40448,0.98035 -0.46917,3.10107 -0.37382,3.78235c0.13861,-1.2143 0.26672,-2.48278 0.37382,-3.78235c0.17053,-0.41624 0.39441,-0.62836 0.69179,-0.47967c0.72539,0.36207 1.05511,0.82074 1.14037,1.26849c-2.24841,3.06872 0.31964,1.5877 0,0c0.2138,-0.29864 0.4801,-0.65021 0.80982,-1.04419c-1.25673,1.66247 3.17583,-1.88551 4.44263,-0.22388c-0.04284,1.12904 0.51243,2.70624 1.06561,1.06561c-3.3556,-11.69861 -0.94758,-40.06225 8.52404,-49.01304c-2.66381,14.36243 -9.1629,27.79828 -6.39282,45.81663c10.23944,-0.07392 18.07044,-2.53571 28.76812,-2.13122c-7.81251,-15.48222 4.33469,-29.56995 4.25909,-46.8835l0.00294,0.00168zm-1.06687,46.8835c4.18809,-5.86023 -0.25496,-13.3069 -3.196,-18.11328c-1.03326,7.04807 -0.29822,13.14267 3.19642,18.1116l-0.00042,0.00168zm-31.96412,6.39282c9.30194,-3.13298 25.13572,0.26672 33.03015,-4.2616c-10.66451,1.75572 -24.83625,0.021 -33.03099,4.26328l0.00084,-0.00168zm-1.06267,76.71388c2.25891,-21.39538 6.0736,-52.44467 12.78565,-75.64701c-4.27253,1.04335 -9.34394,1.29957 -14.91729,1.06519c-1.49068,16.8448 -1.18154,40.10426 -2.1308,57.53541c-0.28982,5.41836 -6.53143,16.54489 4.26328,17.04473l-0.00084,0.00168zm-27.70503,-61.79869c13.56396,-6.55201 -1.4701,-36.31182 -8.52404,-15.98206c3.01538,0.18103 7.30932,-0.91692 7.45843,2.1308l0,4.26161c-1.36299,1.47009 -4.62367,1.05511 -7.45843,1.06561c1.51336,4.16667 2.04595,9.32041 8.52404,8.52236l0,0.00168zm-2.1308,-12.78565c-4.36787,-2.15264 -11.20844,1.24665 -18.11202,0c2.72682,4.80512 13.66897,0.45783 18.11202,0z" id="svg_79"/>
   <path stroke="null" fill="#FFFFFF" d="m201.02888,652.31998c-1.15045,-22.55676 23.88824,2.49286 7.45844,13.91468c-6.60494,1.27856 -6.08327,-4.57117 -8.52363,-7.45844c0.91692,-2.64197 7.41559,0.30872 8.52363,-2.1308c0.45951,-2.22699 -0.72413,-2.82342 -1.06519,-4.26202c0.18061,-1.72631 -6.39283,-1.74732 -6.39283,-0.063l-0.00042,-0.00042z" id="svg_80"/>
   <path stroke="null" fill="#FFFFFF" d="m206.35484,653.44985c0.3209,2.79193 -10.12225,3.82477 -9.58924,0l9.58924,0z" id="svg_81"/>
   <path stroke="null" fill="#FFFFFF" d="m185.04683,610.82963c2.5147,11.34747 4.94456,31.99688 8.52404,45.81663c-2.49328,0.34106 -3.99572,1.68347 -7.45843,1.06519c3.1124,-14.57916 -7.66131,-27.3228 -1.06267,-46.8835l-0.00294,0.00168z" id="svg_82"/>
   <path stroke="null" fill="#FFFFFF" d="m181.85042,715.24434c1.44867,5.8598 6.9796,6.63854 6.39282,11.72045c-6.71247,-0.03234 -11.74104,-1.74689 -15.98248,-4.2616c3.99531,-20.70233 1.27857,-47.39173 -7.45843,-61.79869c4.37963,-1.31006 11.21978,-0.14869 14.91728,-2.1308c9.20701,13.21408 -1.78931,40.57889 2.13375,56.47274l-0.00294,-0.0021z" id="svg_83"/>
   <path stroke="null" fill="#FFFFFF" d="m143.30867,657.93575c-0.32973,0.39398 -0.59602,0.74555 -0.80982,1.04419c-0.08526,-0.44733 -0.41498,-0.906 -1.14037,-1.26849c-0.29738,-0.14869 -0.52126,0.06301 -0.69179,0.47967c2.0237,-24.12261 -1.00218,-60.90402 23.06709,-65.47393c1.87584,-2.04553 2.25933,-5.56158 3.19641,-8.52362c-0.30914,-2.22657 -2.87593,1.57679 -3.19641,-2.13122c4.34728,-0.91608 -2.95028,-17.12201 12.78564,-13.85126c3.55974,5.68928 4.43298,15.97156 0,21.30969c-2.62097,0.13861 -5.12434,0.15961 -6.39282,-1.06561c1.833,7.42651 15.7271,6.06268 15.98248,19.17847c-0.86274,-0.20203 -1.05427,-1.07569 -2.1308,-1.06561c0.07476,17.31397 -12.07244,31.40002 -4.26161,46.8835c-10.69768,-0.40449 -18.52868,2.0573 -28.76812,2.13122c-2.7705,-18.01751 3.72901,-31.45336 6.39282,-45.81663c-9.47162,8.94995 -11.87964,37.31359 -8.52404,49.01304c-0.55318,1.64063 -1.10845,0.06301 -1.06561,-1.06561c-1.26848,-1.66331 -5.69978,1.88173 -4.44389,0.22262l0.00084,-0.00042z" id="svg_84"/>
   <path stroke="null" fill="#FFFFFF" d="m179.71667,635.33405c2.94104,4.80596 7.38409,12.25263 3.196,18.11328c-3.49464,-4.96473 -4.22968,-11.05933 -3.19642,-18.1116l0.00042,-0.00168z" id="svg_85"/>
   <path stroke="null" fill="#FFFFFF" d="m183.97996,655.57939c-7.89443,4.52832 -23.72821,1.12904 -33.03015,4.2616c8.19474,-4.24228 22.36648,-2.50756 33.03099,-4.26328l-0.00084,0.00168z" id="svg_86"/>
   <path stroke="null" fill="#FFFFFF" d="m162.67195,660.90534c-6.71205,23.20654 -10.52716,54.25499 -12.78565,75.64701c-10.79345,-0.50026 -4.5489,-11.62511 -4.26202,-17.04809c0.94926,-17.43157 0.64012,-40.69103 2.1308,-57.53541c5.57377,0.23942 10.6435,-0.0168 14.91939,-1.06267l-0.00252,-0.00084z" id="svg_87"/>
   <path stroke="null" fill="#FFFFFF" d="m142.50221,658.97742c0.31922,1.5877 -2.25135,3.0704 0,0z" id="svg_88"/>
   <path stroke="null" fill="#FFFFFF" d="m140.66669,658.18776c-0.10711,1.29957 -0.23521,2.56805 -0.37382,3.78235c-0.09241,-0.67624 -0.0294,-2.79738 0.37382,-3.78025l0,-0.0021z" id="svg_89"/>
   <path stroke="null" fill="#FFFFFF" d="m113.65765,658.7758c7.05352,-20.32976 22.088,9.43005 8.52404,15.98206c-6.47809,0.79931 -7.0111,-4.35737 -8.52404,-8.52362c2.83476,-0.0105 6.09544,0.40448 7.45843,-1.06561l0,-4.26161c-0.14911,-3.0452 -4.44347,-1.94893 -7.45843,-2.12954l0,-0.00168z" id="svg_90"/>
   <path stroke="null" fill="#FFFFFF" d="m101.93845,661.97221c6.904,1.24665 13.74415,-2.15264 18.11202,0c-4.44305,0.45783 -15.3852,4.80512 -18.11202,0z" id="svg_91"/>
  </g>
  <g stroke="null" id="svg_106">
   <path stroke="null" d="m459.14591,674.5353c1.48696,2.39916 7.91099,-2.72384 8.74859,2.49965c-8.13711,6.01046 -5.97528,22.34459 -21.24531,21.24532c-3.15018,-3.51119 -7.51211,-5.82415 -7.49819,-12.4975c-3.52472,1.62495 -10.73572,4.28772 -13.74674,2.49966c-2.3752,1.65007 6.39775,2.67397 3.7489,8.74782c-7.78615,5.64983 -22.34614,-0.04986 -26.24346,-6.24856c-6.16198,1.32462 -13.07265,1.91253 -18.74644,3.74929c-0.57476,5.82376 2.46178,8.02347 0,12.49711c-10.17293,4.77473 -16.19615,-3.21125 -17.49603,-11.24748c-3.49959,0.66289 -6.48626,1.83677 -9.99784,2.49966c4.3113,18.48321 -21.10771,21.60749 -19.99529,3.7489c-7.43596,-0.06223 -13.28485,3.48683 -12.4975,-6.24856c2.07448,-2.09921 7.34822,-0.99955 11.24786,-1.24963c2.33654,-5.58605 4.03648,-11.7975 9.99746,-13.74635c8.84832,0.73671 7.211,11.94631 19.99529,8.74782c3.2615,-30.07972 -2.64962,-75.63124 28.74312,-81.23198c-4.49915,-18.80789 10.76007,-27.26852 22.49533,-18.74566c0.62501,5.52344 2.84869,13.8971 -1.24963,19.9953c18.47007,11.94708 15.6581,45.16538 21.24532,69.98411c2.72422,-4.78633 3.59776,-11.40981 7.4978,-14.99637l9.99784,0c1.3567,3.63332 5.29538,4.70013 4.99389,9.99552l0.00503,0.00193zm-4.99776,19.99491c7.37295,-6.84767 6.75992,-28.30519 -7.4978,-27.49348c-3.30015,2.10037 -5.29925,5.52343 -4.99931,11.24747c3.5367,0.2122 8.57234,-1.07531 8.74782,2.49965c-0.22496,3.93598 -4.09987,4.22356 -8.74782,3.7489c-0.17548,4.76044 3.14863,6.01084 3.74929,9.99746c2.92212,-0.00387 5.83651,-0.00387 8.74704,-0.00387l0.00078,0.00387zm-6.2501,-13.74481c-1.63732,-1.27553 -9.64881,-1.35013 -9.99707,2.49927c4.06237,-0.11596 7.6957,-0.65323 9.99552,-2.50082l0.00155,0.00155zm-22.49186,4.99776c0.03672,-6.8353 3.33687,3.2499 8.74821,-1.24925c-5.82415,-20.3335 -1.9504,-63.88475 -21.24532,-69.98411c-1.66244,2.07486 0.46113,7.9481 -3.74928,7.49819c0.19906,-2.8742 -13.0854,-5.68578 -8.74783,-12.49711c2.92406,2.07486 3.02417,6.97367 8.74783,6.24855c4.27418,-4.69859 7.09813,-16.75892 3.74928,-24.99421c-10.7102,-5.33636 -20.59595,4.54939 -13.74674,13.74674c-6.74871,-2.67436 4.41063,6.79819 -2.50004,8.74782c-29.84355,-3.51157 -26.05677,48.01406 -28.7435,79.9835c1.82439,1.9245 6.39814,1.09928 9.99745,1.24925c2.9372,-6.72321 -3.38672,-6.04795 -3.7489,-12.49711c3.42384,-16.99703 2.04897,-38.78 13.74674,-47.48839c-0.74985,3.8235 -2.64962,6.51062 -3.74928,9.99745c7.89785,-2.06133 7.72276,3.93598 13.74712,3.7489c6.99764,-2.58585 12.10943,-7.06025 18.74567,-9.99745c19.55427,7.21641 5.99499,31.59837 8.74704,47.48066l0.00155,0.00657zm-8.75091,-3.74929c-0.67603,-11.80986 9.40993,-17.8582 8.7482,-27.49387c-1.2133,-17.88332 -15.5348,-8.92253 -29.99352,-3.7489c0.3873,4.54862 -0.18746,8.13673 -1.25002,11.24748c7.56003,-1.6122 13.97209,-4.36038 19.99607,-7.49819c-4.14934,7.51172 -4.83774,18.4836 -6.24855,28.7435c4.34067,1.0011 4.81609,-1.85918 8.75091,-1.24847l-0.00309,-0.00155zm3.74928,0c1.02352,-2.00026 4.7473,-7.62419 1.24964,-9.99784c1.17503,4.18993 -4.48369,7.8735 -1.24848,9.99939l-0.00116,-0.00155zm1.25234,2.50082c-15.48494,-0.48702 -25.1952,4.79831 -39.98981,4.99892c7.52176,2.38872 30.4272,-1.13639 39.98981,-4.99776l0,-0.00116zm3.74929,11.24399c-0.27598,-8.06058 -10.54786,-6.12293 -18.74566,-6.24855c3.23521,5.10212 10.69513,5.97953 18.74643,6.2501l-0.00077,-0.00155zm-19.99877,-11.24399c-1.60137,-9.12314 2.71224,-18.92037 1.24963,-23.74497c-2.69949,3.5367 -8.28631,4.19959 -14.99715,3.74928c1.13677,9.89735 -7.93573,16.18378 -6.24855,22.49495c4.65375,-2.86414 12.43835,-2.57811 19.99877,-2.50081l-0.0027,0.00155zm-23.7442,2.49694c0.82407,-7.42397 19.45764,-43.05495 3.7489,-39.98981c-6.1496,1.19822 -11.09711,33.95617 -3.74929,39.98981l0.00039,0zm0,17.49796l0,-7.49857c-4.69936,-0.96245 -5.97412,1.52445 -9.99745,1.25002l0,6.24855c5.22581,-0.28602 5.91382,2.02539 9.99938,0l-0.00193,0zm-33.74165,7.49858c9.04777,-2.71224 7.82287,-23.00709 1.25002,-27.49348c-7.24888,-1.01154 -9.74853,2.74973 -9.99784,8.7482c4.51113,-0.33821 8.6481,-0.31308 7.49819,4.99892c-1.14953,2.17498 -3.89926,2.76172 -7.49819,2.49927c-0.35019,7.01155 3.0864,10.24676 8.74782,11.24786l0,-0.00077zm-3.7489,-16.24949c-2.49927,-2.01263 -12.20953,-0.5995 -13.74674,2.49965c3.26149,2.02539 12.57209,1.47653 13.74674,-2.50081l0,0.00116z" id="svg_93"/>
   <path stroke="null" fill="#FFFFFF" d="m446.64957,667.03673c14.25812,-0.81209 14.87114,20.64581 7.4978,27.49348l-8.74782,0c-0.60104,-3.98662 -3.92477,-5.23702 -3.74928,-9.99746c4.64757,0.47466 8.52286,0.18669 8.74782,-3.7489c-0.17549,-3.57496 -5.21074,-2.28745 -8.74782,-2.49965c-0.30149,-5.72056 1.69684,-9.1413 4.99776,-11.244l0.00154,-0.00347z" id="svg_94"/>
   <path stroke="null" fill="#FFFFFF" d="m437.90252,683.28235c0.34826,-3.8494 8.35975,-3.7748 9.99707,-2.49927c-2.29982,1.85145 -5.93315,2.38872 -9.99552,2.50081l-0.00155,-0.00154z" id="svg_95"/>
   <path stroke="null" fill="#FFFFFF" d="m434.15324,684.53469c-5.41134,4.49953 -8.71149,-5.58567 -8.74821,1.24924c-2.75089,-15.88345 10.80954,-40.26425 -8.74821,-47.48839c-6.63623,2.93759 -11.74802,7.41161 -18.74566,9.99746c-6.02437,0.18669 -5.84927,-5.81024 -13.74713,-3.7489c1.09967,-3.48684 2.99905,-6.17434 3.74929,-9.99746c-11.69777,8.70994 -10.32329,30.49214 -13.74674,47.48839c0.36256,6.44916 6.6861,5.7739 3.7489,12.49711c-3.5997,-0.15036 -8.17306,0.67487 -9.99745,-1.24925c2.68673,-31.96789 -1.10005,-83.49314 28.7435,-79.9835c6.91067,-1.94962 -4.24868,-11.42256 2.50004,-8.74782c-6.84883,-9.19773 3.03653,-19.08309 13.74674,-13.74674c3.34885,8.23529 0.52451,20.29563 -3.74929,24.99422c-5.72365,0.72473 -5.82337,-4.17369 -8.74782,-6.24856c-4.33758,6.81134 8.9465,9.62292 8.74782,12.49711c4.2108,0.44992 2.08685,-5.42332 3.74929,-7.49819c19.28757,6.09936 15.41459,49.65293 21.23952,69.98798l0.00541,-0.0027z" id="svg_96"/>
   <path stroke="null" fill="#FFFFFF" d="m425.40619,654.54039c0.66173,9.63567 -9.42424,15.684 -8.74821,27.49387c-3.93713,-0.6111 -4.41256,2.24957 -8.74782,1.24963c1.41082,-10.2599 2.09922,-21.23217 6.24856,-28.7435c-6.02399,3.13781 -12.43643,5.88638 -19.99607,7.49819c1.06255,-3.11075 1.63732,-6.69886 1.25002,-11.24748c14.45215,-5.17556 28.77674,-14.13519 29.99043,3.74929l0.00309,0z" id="svg_97"/>
   <path stroke="null" fill="#FFFFFF" d="m421.6569,672.03449c3.49766,2.37403 -0.22611,7.99757 -1.24963,9.99784c-3.23907,-2.12589 2.41964,-5.80947 1.24847,-9.99939l0.00116,0.00155z" id="svg_98"/>
   <path stroke="null" fill="#FFFFFF" d="m381.66322,689.53245c14.79654,-0.20061 24.50681,-5.48556 39.98982,-4.99892c-9.55875,3.86138 -32.46419,7.38648 -39.98982,4.99776l0,0.00116z" id="svg_99"/>
   <path stroke="null" fill="#FFFFFF" d="m406.65976,689.53245c8.19779,0.12562 18.46968,-1.81203 18.74566,6.24855c-8.05131,-0.27443 -15.51123,-1.15184 -18.74644,-6.2501l0.00078,0.00155z" id="svg_100"/>
   <path stroke="null" fill="#FFFFFF" d="m406.65976,660.79049c1.46222,4.82421 -2.85101,14.62183 -1.24964,23.74497c-7.56158,-0.0746 -15.34734,-0.36256 -19.99607,2.49965c-1.68717,-6.31117 7.38533,-12.5976 6.24856,-22.49495c6.7062,0.44837 12.29147,-0.21258 14.99328,-3.74928l0.00387,-0.00039z" id="svg_101"/>
   <path stroke="null" fill="#FFFFFF" d="m385.41251,647.04182c15.70874,-3.06244 -2.92483,32.567 -3.7489,39.98981c-7.34783,-6.03364 -2.40032,-38.79159 3.74928,-39.98981l-0.00038,0z" id="svg_102"/>
   <path stroke="null" fill="#FFFFFF" d="m381.66322,697.03102l0,7.49857c-4.08672,2.02423 -4.77435,-0.2868 -9.99745,0l0,-6.24855c4.02758,0.27443 5.29925,-2.21092 9.99938,-1.24847l-0.00193,-0.00155z" id="svg_103"/>
   <path stroke="null" fill="#FFFFFF" d="m349.17159,684.53469c6.57285,4.486 7.79775,24.78124 -1.25002,27.49348c-5.66142,-0.99917 -9.09801,-4.23592 -8.74782,-11.24748c3.59893,0.26245 6.34866,-0.32429 7.49819,-2.49926c1.14991,-5.31162 -2.98706,-5.33713 -7.49819,-4.99892c0.24931,-5.99886 2.74896,-9.75974 9.99784,-8.74705l0,-0.00077z" id="svg_104"/>
   <path stroke="null" fill="#FFFFFF" d="m330.42593,698.27949c1.53721,-3.09915 11.24747,-4.51228 13.74674,-2.49965c-1.17465,3.97734 -10.48525,4.5262 -13.74674,2.50081l0,-0.00116z" id="svg_105"/>
  </g>
  <g stroke="null" id="svg_120">
   <path stroke="null" d="m693.14604,696.53531c1.48696,2.39916 7.91099,-2.72384 8.74859,2.49965c-8.13711,6.01046 -5.97528,22.34459 -21.24531,21.24532c-3.15018,-3.51119 -7.51211,-5.82415 -7.49819,-12.4975c-3.52472,1.62495 -10.73572,4.28772 -13.74674,2.49966c-2.3752,1.65007 6.39775,2.67397 3.7489,8.74782c-7.78615,5.64983 -22.34614,-0.04986 -26.24346,-6.24856c-6.16198,1.32462 -13.07265,1.91253 -18.74644,3.74929c-0.57476,5.82376 2.46178,8.02347 0,12.49711c-10.17293,4.77473 -16.19615,-3.21125 -17.49603,-11.24748c-3.49959,0.66289 -6.48626,1.83677 -9.99784,2.49966c4.3113,18.48321 -21.10771,21.60749 -19.99529,3.7489c-7.43596,-0.06223 -13.28485,3.48683 -12.4975,-6.24856c2.07448,-2.09921 7.34822,-0.99955 11.24786,-1.24963c2.33654,-5.58605 4.03648,-11.7975 9.99746,-13.74635c8.84832,0.73671 7.211,11.94631 19.99529,8.74782c3.2615,-30.07972 -2.64962,-75.63124 28.74312,-81.23198c-4.49915,-18.80789 10.76007,-27.26852 22.49533,-18.74566c0.62501,5.52344 2.84869,13.8971 -1.24963,19.9953c18.47007,11.94708 15.6581,45.16538 21.24532,69.98411c2.72422,-4.78633 3.59776,-11.40981 7.4978,-14.99637l9.99784,0c1.3567,3.63332 5.29538,4.70013 4.99389,9.99552l0.00503,0.00193zm-4.99776,19.99491c7.37295,-6.84767 6.75992,-28.30519 -7.4978,-27.49348c-3.30015,2.10037 -5.29925,5.52343 -4.99931,11.24747c3.5367,0.2122 8.57234,-1.07531 8.74782,2.49965c-0.22496,3.93598 -4.09987,4.22356 -8.74782,3.7489c-0.17548,4.76044 3.14863,6.01084 3.74929,9.99746c2.92212,-0.00387 5.83651,-0.00387 8.74704,-0.00387l0.00078,0.00387zm-6.2501,-13.74481c-1.63732,-1.27553 -9.64881,-1.35013 -9.99707,2.49927c4.06237,-0.11596 7.6957,-0.65323 9.99552,-2.50082l0.00155,0.00155zm-22.49186,4.99776c0.03672,-6.8353 3.33687,3.2499 8.74821,-1.24925c-5.82415,-20.3335 -1.9504,-63.88475 -21.24532,-69.98411c-1.66244,2.07486 0.46113,7.9481 -3.74928,7.49819c0.19906,-2.8742 -13.0854,-5.68578 -8.74783,-12.49711c2.92406,2.07486 3.02417,6.97367 8.74783,6.24855c4.27418,-4.69859 7.09813,-16.75892 3.74928,-24.99421c-10.7102,-5.33636 -20.59595,4.54939 -13.74674,13.74674c-6.74871,-2.67436 4.41063,6.79819 -2.50004,8.74782c-29.84355,-3.51157 -26.05677,48.01406 -28.7435,79.9835c1.82439,1.9245 6.39814,1.09928 9.99745,1.24925c2.9372,-6.72321 -3.38672,-6.04795 -3.7489,-12.49711c3.42384,-16.99703 2.04897,-38.78 13.74674,-47.48839c-0.74985,3.8235 -2.64962,6.51062 -3.74928,9.99745c7.89785,-2.06133 7.72276,3.93598 13.74712,3.7489c6.99764,-2.58585 12.10943,-7.06025 18.74567,-9.99745c19.55427,7.21641 5.99499,31.59837 8.74704,47.48066l0.00155,0.00657zm-8.75091,-3.74929c-0.67603,-11.80986 9.40993,-17.8582 8.7482,-27.49387c-1.2133,-17.88332 -15.5348,-8.92253 -29.99352,-3.7489c0.3873,4.54862 -0.18746,8.13673 -1.25002,11.24748c7.56003,-1.6122 13.97209,-4.36038 19.99607,-7.49819c-4.14934,7.51172 -4.83774,18.4836 -6.24855,28.7435c4.34067,1.0011 4.81609,-1.85918 8.75091,-1.24847l-0.00309,-0.00155zm3.74928,0c1.02352,-2.00026 4.7473,-7.62419 1.24964,-9.99784c1.17503,4.18993 -4.48369,7.8735 -1.24848,9.99939l-0.00116,-0.00155zm1.25234,2.50082c-15.48494,-0.48702 -25.1952,4.79831 -39.98981,4.99892c7.52176,2.38872 30.4272,-1.13639 39.98981,-4.99776l0,-0.00116zm3.74929,11.24399c-0.27598,-8.06058 -10.54786,-6.12293 -18.74566,-6.24855c3.23521,5.10212 10.69513,5.97953 18.74643,6.2501l-0.00077,-0.00155zm-19.99877,-11.24399c-1.60137,-9.12314 2.71224,-18.92037 1.24963,-23.74497c-2.69949,3.5367 -8.28631,4.19959 -14.99715,3.74928c1.13677,9.89735 -7.93573,16.18378 -6.24855,22.49495c4.65375,-2.86414 12.43835,-2.57811 19.99877,-2.50081l-0.0027,0.00155zm-23.7442,2.49694c0.82407,-7.42397 19.45764,-43.05495 3.7489,-39.98981c-6.1496,1.19822 -11.09711,33.95617 -3.74929,39.98981l0.00039,0zm0,17.49796l0,-7.49857c-4.69936,-0.96245 -5.97412,1.52445 -9.99745,1.25002l0,6.24855c5.22581,-0.28602 5.91382,2.02539 9.99938,0l-0.00193,0zm-33.74165,7.49858c9.04777,-2.71224 7.82287,-23.00709 1.25002,-27.49348c-7.24888,-1.01154 -9.74853,2.74973 -9.99784,8.7482c4.51113,-0.33821 8.6481,-0.31308 7.49819,4.99892c-1.14953,2.17498 -3.89926,2.76172 -7.49819,2.49927c-0.35019,7.01155 3.0864,10.24676 8.74782,11.24786l0,-0.00077zm-3.7489,-16.24949c-2.49927,-2.01263 -12.20953,-0.5995 -13.74674,2.49965c3.26149,2.02539 12.57209,1.47653 13.74674,-2.50081l0,0.00116z" id="svg_107"/>
   <path stroke="null" fill="#FFFFFF" d="m680.6497,689.03674c14.25812,-0.81209 14.87114,20.64581 7.4978,27.49348l-8.74782,0c-0.60104,-3.98662 -3.92477,-5.23702 -3.74928,-9.99746c4.64757,0.47466 8.52286,0.18669 8.74782,-3.7489c-0.17549,-3.57496 -5.21074,-2.28745 -8.74782,-2.49965c-0.30149,-5.72056 1.69684,-9.1413 4.99776,-11.244l0.00154,-0.00347z" id="svg_108"/>
   <path stroke="null" fill="#FFFFFF" d="m671.90265,705.28236c0.34826,-3.8494 8.35975,-3.7748 9.99707,-2.49927c-2.29982,1.85145 -5.93315,2.38872 -9.99552,2.50081l-0.00155,-0.00154z" id="svg_109"/>
   <path stroke="null" fill="#FFFFFF" d="m668.15337,706.5347c-5.41134,4.49953 -8.71149,-5.58567 -8.74821,1.24924c-2.75089,-15.88345 10.80954,-40.26425 -8.74821,-47.48839c-6.63623,2.93759 -11.74802,7.41161 -18.74566,9.99746c-6.02437,0.18669 -5.84927,-5.81024 -13.74713,-3.7489c1.09967,-3.48684 2.99905,-6.17434 3.74929,-9.99746c-11.69777,8.70994 -10.32329,30.49214 -13.74674,47.48839c0.36256,6.44916 6.6861,5.7739 3.7489,12.49711c-3.5997,-0.15036 -8.17306,0.67487 -9.99745,-1.24925c2.68673,-31.96789 -1.10005,-83.49314 28.7435,-79.9835c6.91067,-1.94962 -4.24868,-11.42256 2.50004,-8.74782c-6.84883,-9.19773 3.03653,-19.08309 13.74674,-13.74674c3.34885,8.23529 0.52451,20.29563 -3.74929,24.99422c-5.72365,0.72473 -5.82337,-4.17369 -8.74782,-6.24856c-4.33758,6.81134 8.9465,9.62292 8.74782,12.49711c4.2108,0.44992 2.08685,-5.42332 3.74929,-7.49819c19.28757,6.09936 15.41459,49.65293 21.23952,69.98798l0.00541,-0.0027z" id="svg_110"/>
   <path stroke="null" fill="#FFFFFF" d="m659.40632,676.5404c0.66173,9.63567 -9.42424,15.684 -8.74821,27.49387c-3.93713,-0.6111 -4.41256,2.24957 -8.74782,1.24963c1.41082,-10.2599 2.09922,-21.23217 6.24856,-28.7435c-6.02399,3.13781 -12.43643,5.88638 -19.99607,7.49819c1.06255,-3.11075 1.63732,-6.69886 1.25002,-11.24748c14.45215,-5.17556 28.77674,-14.13519 29.99043,3.74929l0.00309,0z" id="svg_111"/>
   <path stroke="null" fill="#FFFFFF" d="m655.65703,694.0345c3.49766,2.37403 -0.22611,7.99757 -1.24963,9.99784c-3.23907,-2.12589 2.41964,-5.80947 1.24847,-9.99939l0.00116,0.00155z" id="svg_112"/>
   <path stroke="null" fill="#FFFFFF" d="m615.66335,711.53246c14.79654,-0.20061 24.50681,-5.48556 39.98982,-4.99892c-9.55875,3.86138 -32.46419,7.38648 -39.98982,4.99776l0,0.00116z" id="svg_113"/>
   <path stroke="null" fill="#FFFFFF" d="m640.65989,711.53246c8.19779,0.12562 18.46968,-1.81203 18.74566,6.24855c-8.05131,-0.27443 -15.51123,-1.15184 -18.74644,-6.2501l0.00078,0.00155z" id="svg_114"/>
   <path stroke="null" fill="#FFFFFF" d="m640.65989,682.7905c1.46222,4.82421 -2.85101,14.62183 -1.24964,23.74497c-7.56158,-0.0746 -15.34734,-0.36256 -19.99607,2.49965c-1.68717,-6.31117 7.38533,-12.5976 6.24856,-22.49495c6.7062,0.44837 12.29147,-0.21258 14.99328,-3.74928l0.00387,-0.00039z" id="svg_115"/>
   <path stroke="null" fill="#FFFFFF" d="m619.41264,669.04183c15.70874,-3.06244 -2.92483,32.567 -3.7489,39.98981c-7.34783,-6.03364 -2.40032,-38.79159 3.74928,-39.98981l-0.00038,0z" id="svg_116"/>
   <path stroke="null" fill="#FFFFFF" d="m615.66335,719.03103l0,7.49857c-4.08672,2.02423 -4.77435,-0.2868 -9.99745,0l0,-6.24855c4.02758,0.27443 5.29925,-2.21092 9.99938,-1.24847l-0.00193,-0.00155z" id="svg_117"/>
   <path stroke="null" fill="#FFFFFF" d="m583.17172,706.5347c6.57285,4.486 7.79775,24.78124 -1.25002,27.49348c-5.66142,-0.99917 -9.09801,-4.23592 -8.74782,-11.24748c3.59893,0.26245 6.34866,-0.32429 7.49819,-2.49926c1.14991,-5.31162 -2.98706,-5.33713 -7.49819,-4.99892c0.24931,-5.99886 2.74896,-9.75974 9.99784,-8.74705l0,-0.00077z" id="svg_118"/>
   <path stroke="null" fill="#FFFFFF" d="m564.42606,720.2795c1.53721,-3.09915 11.24747,-4.51228 13.74674,-2.49965c-1.17465,3.97734 -10.48525,4.5262 -13.74674,2.50081l0,-0.00116z" id="svg_119"/>
  </g>
  <text stroke="null" transform="matrix(4.39380710472568,0,0,5.263418310997962,-1768.5862035080202,-1668.2646491258995) " xml:space="preserve" text-anchor="start" font-family="Helvetica, Arial, sans-serif" font-size="24" id="svg_123" y="344.38386" x="409.45464" fill-opacity="null" stroke-opacity="null" stroke-width="0" fill="#000000">IRON FITNESS</text>
  <text stroke="null" transform="matrix(4.39380710472568,0,0,5.263418310997962,-1624.5861253067264,-1564.2645995348353) " xml:space="preserve" text-anchor="start" font-family="Helvetica, Arial, sans-serif" font-size="12" id="svg_124" y="344.38386" x="409.45464" fill-opacity="null" stroke-opacity="null" stroke-width="0" fill="#000000">Get fit like the pros!</text>
 </g>
</svg>